<?xml version="1.0" encoding="UTF-8" standalone="no"?>
<!-- Created with Inkscape (http://www.inkscape.org/) -->

<svg
   xmlns:dc="http://purl.org/dc/elements/1.1/"
   xmlns:cc="http://creativecommons.org/ns#"
   xmlns:rdf="http://www.w3.org/1999/02/22-rdf-syntax-ns#"
   xmlns:svg="http://www.w3.org/2000/svg"
   xmlns="http://www.w3.org/2000/svg"
   xmlns:sodipodi="http://sodipodi.sourceforge.net/DTD/sodipodi-0.dtd"
   xmlns:inkscape="http://www.inkscape.org/namespaces/inkscape"
   width="82.561745mm"
   height="65.720123mm"
   viewBox="0 0 292.54162 232.86658"
   id="svg4818"
   version="1.1"
   inkscape:version="0.91 r13725"
   sodipodi:docname="bow2.svg"
   inkscape:export-filename="/home/promo2/Documents/OPEN  CLASSROOM/JQUERY/anniversaire/img/bow2.svg.png"
   inkscape:export-xdpi="90"
   inkscape:export-ydpi="90">
  <defs
     id="defs4820" />
  <sodipodi:namedview
     id="base"
     pagecolor="#ffffff"
     bordercolor="#666666"
     borderopacity="1.0"
     inkscape:pageopacity="0.0"
     inkscape:pageshadow="2"
     inkscape:zoom="2.8"
     inkscape:cx="123.17752"
     inkscape:cy="129.13771"
     inkscape:document-units="px"
     inkscape:current-layer="layer1"
     showgrid="false"
     fit-margin-top="0"
     fit-margin-left="0"
     fit-margin-right="0"
     fit-margin-bottom="0"
     inkscape:window-width="1301"
     inkscape:window-height="744"
     inkscape:window-x="65"
     inkscape:window-y="24"
     inkscape:window-maximized="1" />
  <metadata
     id="metadata4823">
    <rdf:RDF>
      <cc:Work
         rdf:about="">
        <dc:format>image/svg+xml</dc:format>
        <dc:type
           rdf:resource="http://purl.org/dc/dcmitype/StillImage" />
        <dc:title />
      </cc:Work>
    </rdf:RDF>
  </metadata>
  <g
     inkscape:label="Calque 1"
     inkscape:groupmode="layer"
     id="layer1"
     transform="translate(-100.31554,-939.71585)">
    <g
       id="g5235">
      <path
         inkscape:connector-curvature="0"
         id="path432"
         style="fill:#f29138;fill-opacity:1;fill-rule:nonzero;stroke:none"
         d="m 116.49202,1034.5736 c -0.11725,0.8113 -0.50975,3.9725 0.0302,6.6713 0.625,3.125 0,5.9375 0.625,11.5625 0.522,4.6975 1.0425,8.5125 1.20025,9.6462 13.78512,-4.74 26.92325,-10.775 40.04975,-16.8337 -14.32613,-1.91 -27.92388,-8.1863 -41.90525,-11.0463" />
      <path
         inkscape:connector-curvature="0"
         id="path434"
         style="fill:#f29138;fill-opacity:1;fill-rule:nonzero;stroke:none"
         d="m 134.50127,988.74488 c -0.6685,0 -3.48238,0 -4.854,0 -1.5625,0 -12.1875,0 -12.1875,0 l -0.3125,15.62502 c 0,0 -0.001,2.6325 -0.81638,4.8 6.90763,-5.6938 11.63088,-13.93252 18.17038,-20.42502" />
      <path
         inkscape:connector-curvature="0"
         id="path436"
         style="fill:#d3a91f;fill-opacity:1;fill-rule:nonzero;stroke:none"
         d="m 389.33477,1091.2449 c -2.8125,-2.8125 -16.25,-14.375 -16.25,-14.375 0,0 0.15375,-0.5675 0.3375,-1.425 -13.86625,-9.3775 -28.6675,-22.5175 -45.5775,-19.4688 -0.6475,0.2963 -1.295,0.5938 -1.9475,0.8938 0.6525,-0.3 1.3,-0.5975 1.9475,-0.8938 -2.2775,0.41 -4.59,1.0963 -6.9475,2.1438 2.3575,-1.0475 4.67,-1.7338 6.9475,-2.1438 15.50375,-7.1125 29.905,-13.3075 44.3025,-24.1062 1.24,-0.8263 2.485,-1.4988 3.77125,-2.0075 2.58375,-2.21 8.13,-6.3713 9.04125,-7.055 1.25,-0.9375 0.3125,-3.75 -1.25,-6.25 -1.5625,-2.5 -5.3125,-6.5625 -9.6875,-10.625 -4.375,-4.0625 -6.5625,-10.62502 -10.3125,-15.00002 -3.75,-4.375 -8.4375,-16.25 -12.8125,-20 -4.375,-3.75 -15.3125,-19.6875 -18.75,-23.125 -3.4375,-3.4375 -7.1875,-8.4375 -11.25,-7.1875 -4.0625,1.25 -11.25,8.125 -15,11.25 -3.75,3.125 -15,10.9375 -20.9375,15.3125 -5.9375,4.375 -11.5625,9.0625 -19.6875,19.375 -8.125,10.3125 -8.4375,21.87502 -7.5,28.75002 0.9375,6.875 -2.5,9.0625 -2.5,9.0625 0,0 -3.125,-0.9375 -5,-0.625 -1.875,0.3125 -7.1875,1.5625 -12.8125,1.25 -5.625,-0.3125 -8.125,1.5625 -8.125,1.5625 0,0 -0.625,-1.25 -1.875,-3.4375 -1.25,-2.1875 -4.375,-9.0625 -5.9375,-16.25 -1.5625,-7.18752 -8.4375,-19.37502 -12.5,-25.93752 -4.0625,-6.5625 -20,-18.125 -33.125,-25.3125 -13.125,-7.1875 -36.5625,-9.0625 -36.5625,-9.0625 0,0 -1.5625,4.0625 -1.875,8.4375 -0.3125,4.375 0,10.9375 0.9375,15.9375 0.9375,5 3.125,11.875 1.875,13.4375 -1.25,1.5625 -5.625,4.375 -5.625,4.375 l -0.146,0 c -6.5395,6.4925 -11.26275,14.73122 -18.17038,20.42502 -0.19775,0.525 -0.44137,1.0237 -0.74612,1.45 -1.5625,2.1875 -11.5625,19.375 -11.5625,19.375 l 12.5,4.375 c 0,0 -0.0122,0.075 -0.0302,0.2037 13.98137,2.86 27.57912,9.1363 41.90525,11.0463 -13.1265,6.0587 -26.26463,12.0937 -40.04975,16.8337 0.0312,0.225 0.0497,0.3538 0.0497,0.3538 0,0 -6.5625,4.375 -10.625,5.9375 -4.0625,1.5625 -5.9375,4.0625 -5.9375,6.5625 0,2.5 8.125,14.0625 10,17.1875 1.875,3.125 7.8125,15.9375 13.4375,21.5625 5.625,5.625 10.9375,17.1875 14.6875,20.9375 3.75,3.75 10.3125,10.625 15.3125,16.25 5,5.625 6.5625,8.75 8.4375,7.5 1.875,-1.25 4.6875,-3.125 8.4375,-4.6875 3.75,-1.5625 7.8125,-6.5625 10.3125,-8.4375 2.5,-1.875 9.6875,-7.8125 13.4375,-11.875 3.75,-4.0625 16.25,-17.1875 23.125,-27.1875 6.875,-10 8.4375,-13.75 9.0625,-18.125 0.625,-4.375 2.1875,-7.5 3.4375,-9.0625 1.25,-1.5625 3.4375,-1.875 5.9375,-2.1875 2.5,-0.3125 7.1875,-1.25 9.6875,-0.9375 1.18375,0.1487 2.71875,-0.335 4.23875,-0.8175 1.68875,-0.5375 3.36,-1.0738 4.51125,-0.745 2.1875,0.625 1.5625,2.8125 1.875,4.375 0.3125,1.5625 0.3125,9.6875 0.625,12.8125 0.3125,3.125 2.8125,18.75 5.3125,24.6875 2.5,5.9375 7.5,20.9375 12.8125,25.625 5.3125,4.6875 15,15 25,19.375 10,4.375 27.1875,9.6875 27.1875,9.6875 0,0 4.0625,-4.6875 5.3125,-7.5 1.25,-2.8125 4.0625,-10 5,-15 0.53,-2.8276 2.15875,-7.8511 3.475,-11.685 -0.61375,-14.3175 11.01,-21.785 24.35125,-26.1388 1.5775,-1.5587 7.1825,-3.1175 10.61125,-4.9887 3.4375,-1.875 9.0625,-5.625 10.9375,-7.8125 1.875,-2.1875 3.75,-4.0625 0.9375,-6.875" />
      <path
         inkscape:connector-curvature="0"
         id="path438"
         style="fill:#f29138;fill-opacity:1;fill-rule:nonzero;stroke:none"
         d="m 342.49727,1137.0599 c 1.01125,-2.945 1.8375,-5.19 1.8375,-5.19 l 3.75,0.3125 c 0,0 8.125,0 9.375,0.3125 1.25,0.3125 5.9375,-17.5 5.9375,-17.5 0,0 1.875,-2.5 3.4375,-4.0625 l 0.0138,-0.011 c -13.34125,4.3537 -24.965,11.8212 -24.35125,26.1387" />
      <path
         inkscape:connector-curvature="0"
         id="path440"
         style="fill:#f29138;fill-opacity:1;fill-rule:nonzero;stroke:none"
         d="m 327.84477,1055.9761 c 16.91,-3.0487 31.71125,10.0913 45.5775,19.4688 0.26875,-1.26 0.6,-3.15 0.6,-4.825 0,-2.8125 4.375,-13.75 5.3125,-20.3125 0.9375,-6.5625 2.8125,-15 2.5,-17.1875 -0.3125,-2.1875 -6.25,-1.875 -7.1875,-1.875 -0.25375,0 0.31,-0.56 1.27125,-1.3825 -1.28625,0.5087 -2.53125,1.1812 -3.77125,2.0075 -14.3975,10.7987 -28.79875,16.9937 -44.3025,24.1062" />
      <path
         inkscape:connector-curvature="0"
         id="path442"
         style="fill:#d3741f;fill-opacity:1;fill-rule:nonzero;stroke:none"
         d="m 342.49727,1137.0599 c -0.015,-0.3638 -0.0237,-0.7225 -0.0237,-1.0775 0.001,-13.6175 11.3725,-20.8188 24.375,-25.0613 l -0.0138,0.011 c -1.5625,1.5625 -3.4375,4.0625 -3.4375,4.0625 0,0 -4.60625,17.505 -5.90375,17.505 -0.0113,0 -0.0225,0 -0.0337,-0.01 -1.25,-0.3125 -9.375,-0.3125 -9.375,-0.3125 l -3.75,-0.3125 c 0,0 -0.82625,2.245 -1.8375,5.19" />
      <path
         inkscape:connector-curvature="0"
         id="path444"
         style="fill:#d3741f;fill-opacity:1;fill-rule:nonzero;stroke:none"
         d="m 118.34752,1062.4536 c -0.15775,-1.1337 -0.67825,-4.9487 -1.20025,-9.6462 -0.30663,-2.7575 -0.3125,-4.8388 -0.3125,-6.6125 0,-0.01 0,-0.014 0,-0.021 0,-0.01 0,-0.014 0,-0.021 0,-0.021 0,-0.043 0,-0.064 0,-0.01 0,-0.014 0,-0.02 0,-0.01 0,-0.015 0,-0.021 0,-0.01 0,-0.014 0,-0.021 0,-0.01 0,-0.014 0,-0.021 0,-0.01 0,-0.014 0,-0.021 0,-0.01 0,-0.014 0,-0.02 -5e-4,-1.7413 -0.007,-3.1925 -0.3125,-4.7188 -0.209,-1.0437 -0.27838,-2.1562 -0.27788,-3.1762 0,-1.6163 0.17538,-2.9975 0.24763,-3.495 l 0,0 c 0.0302,0.01 0.0605,0.011 0.0907,0.018 0.0118,0 0.0255,0.01 0.0371,0.01 0.0181,0 0.0348,0.01 0.0528,0.01 0.0151,0 0.0307,0.01 0.0464,0.01 0.0143,0 0.0279,0.01 0.042,0.01 0.0171,0 0.0348,0.01 0.0517,0.011 0.0108,0 0.021,0 0.0318,0.01 0.0699,0.015 0.13962,0.029 0.2095,0.044 0.005,0 0.0102,0 0.0146,0 0.0254,0.01 0.0489,0.01 0.0747,0.015 0.002,0 0.005,0 0.007,0 13.751,2.92 27.14562,9.03 41.24712,10.91 -1.352,0.625 -2.70562,1.2487 -4.05912,1.8712 -2.6435,0.355 -5.16888,1.365 -7.4575,3.3988 -2.98775,1.345 -5.98725,2.67 -9.00238,3.9587 5e-4,-10e-4 8.8e-4,0 10e-4,0 -6.40862,2.74 -12.8945,5.3275 -19.53212,7.61 l 0,0" />
      <path
         inkscape:connector-curvature="0"
         id="path446"
         style="fill:#d3741f;fill-opacity:1;fill-rule:nonzero;stroke:none"
         d="m 116.33089,1009.1699 c 0.81488,-2.1675 0.81638,-4.8 0.81638,-4.8 l 0.3125,-15.62502 c 0,0 10.625,0 12.1875,0 1.37162,0 4.1855,0 4.854,0 -6.5395,6.4925 -11.26275,14.73122 -18.17038,20.42502" />
      <path
         inkscape:connector-curvature="0"
         id="path448"
         style="fill:#d3741f;fill-opacity:1;fill-rule:nonzero;stroke:none"
         d="m 373.42227,1075.4449 0,0 c -0.015,-0.01 -0.0312,-0.02 -0.045,-0.03 -0.007,0 -0.015,-0.011 -0.0225,-0.015 -0.004,0 -0.007,-0.01 -0.0112,-0.01 -0.0175,-0.013 -0.0362,-0.025 -0.0538,-0.038 -0.0125,-0.01 -0.0237,-0.016 -0.0362,-0.024 -0.0337,-0.024 -0.0687,-0.047 -0.10375,-0.071 -0.0125,-0.01 -0.0238,-0.016 -0.0375,-0.025 -12.37875,-8.4125 -25.51,-19.7013 -40.22375,-19.7088 -0.005,0 -0.01,0 -0.015,0 l 0,0 c -10e-4,0 0,0 -10e-4,0 -1.62125,10e-4 -3.265,0.1388 -4.92625,0.4313 -0.0125,0 -0.025,0 -0.0387,0.01 -0.02,0 -0.0413,0.01 -0.0625,0.011 15.50375,-7.1125 29.905,-13.3075 44.3025,-24.1063 1.24,-0.8262 2.485,-1.4987 3.77125,-2.0075 -0.8075,0.6913 -1.335,1.1963 -1.3325,1.3413 0.001,0.027 0.02,0.041 0.0612,0.041 0.20875,0 0.66375,-0.015 1.24875,-0.015 2.05,0 5.69625,0.1888 5.93875,1.89 0.0238,0.1675 0.035,0.37 0.035,0.605 -0.002,2.8575 -1.66875,10.52 -2.535,16.5825 -0.9375,6.5625 -5.3125,17.5 -5.3125,20.3125 0,1.675 -0.33125,3.565 -0.6,4.825" />
      <path
         inkscape:connector-curvature="0"
         id="path450"
         style="fill:#d38a1f;fill-opacity:1;fill-rule:nonzero;stroke:none"
         d="m 279.12227,1057.2136 c -3.7025,0 -8.10375,-2.5712 -11.7275,-3.4687 -2.5725,-0.6363 -5.27,-0.6113 -7.67625,-1.53 -1.2825,-4.905 -1.02125,-10.3725 -2.06375,-15.3663 -0.1475,-0.71 -0.30875,-1.4425 -0.46625,-2.1962 0.1025,-2.585 0.0825,-5.6263 -0.8075,-7.8063 0.0975,-2.0387 0.4975,-4.2 1.40125,-6.4875 -0.33625,1.2725 -0.36125,2.65 -0.155,3.9488 0.60375,0.03 1.19375,0.045 1.76875,0.045 8.54625,0 14.1075,-3.2938 21.71,-7.495 4.3,-2.375 8.58625,-4.2738 12.07875,-7.6963 2.5975,-2.5462 4.7275,-6.58 8.1075,-7.9762 -2.81125,3.0775 -4.1725,7.45 -7.0575,10.6137 -2.72625,2.9888 -6.5925,5.38 -9.78,7.8088 -5.18375,3.95 -11.08875,6.7787 -17.00375,9.7625 -4.4375,2.24 -6.76125,4.4312 -6.55375,9.5625 0.2125,5.2612 2.77,5.4387 7.8325,5.4387 0.2325,0 0.47,0 0.71375,-10e-4 2.9625,0 6.475,-0.2062 9.9675,-0.2062 3.645,0 7.27,0.2212 10.23125,1.1225 -0.97875,1.1562 -4.8825,1.2475 -9.195,1.2475 -0.4025,0 -0.8075,-10e-4 -1.215,0 -0.40625,0 -0.81375,-10e-4 -1.22125,-10e-4 -5.7175,0 -11.3375,0.1537 -11.2675,2.6325 0.1075,3.7487 10.875,5.6812 12.46375,8.05 -0.0288,10e-4 -0.0563,10e-4 -0.085,10e-4 m -21.34,-36.855 c 0.2125,-0.8038 0.55,-1.565 1.03125,-2.2388 -0.4,0.76 -0.74125,1.5063 -1.03125,2.2388" />
      <path
         inkscape:connector-curvature="0"
         id="path452"
         style="fill:#f7ba88;fill-opacity:1;fill-rule:nonzero;stroke:none"
         d="m 261.38352,1111.0049 c -0.955,-3.6775 -1.95625,-7.4838 -2.94625,-11.0488 -1.83875,-6.6137 -1.00125,-15.5475 -1.28875,-22.2537 -0.0312,-0.7338 -0.035,-1.47 -0.0187,-2.2113 0.685,0.9563 0.415,2.4275 0.6425,3.5663 0.3125,1.5625 0.3125,9.6875 0.625,12.8125 0.23375,2.3337 1.68625,11.635 3.4475,18.67 -0.13875,0.1712 -0.2925,0.3275 -0.46125,0.465" />
      <path
         inkscape:connector-curvature="0"
         id="path454"
         style="fill:#d38a1f;fill-opacity:1;fill-rule:nonzero;stroke:none"
         d="m 272.96727,1111.0949 c -2.4875,-2.2325 -4.67125,-6.6038 -6.225,-9.6175 -1.50375,-2.9175 -1.5925,-9.915 -5.365,-10.3838 -0.2225,4.535 3.50375,15.7163 0.4675,19.4463 -1.76125,-7.035 -3.21375,-16.3363 -3.4475,-18.67 -0.3125,-3.125 -0.3125,-11.25 -0.625,-12.8125 -0.2275,-1.1388 0.0425,-2.61 -0.6425,-3.5663 0.0212,-0.8912 0.0737,-1.7887 0.15,-2.69 1.09,-2.5512 1.8375,-7.2737 1.19375,-9.1712 0.41125,-2.93 0.7575,-5.8838 0.7575,-8.8425 0.13125,-1.3588 0.76125,-1.8175 1.575,-1.8175 0.64125,0 1.3975,0.285 2.11125,0.64 0.004,0.225 0.005,0.4512 0.005,0.6787 -0.15375,0.024 -0.30875,0.051 -0.4625,0.081 0.12625,0.2863 0.28,0.5575 0.45625,0.8163 -0.10125,7.1725 -1.375,14.8012 0.64375,21.845 1.6925,5.9087 3.385,13.2937 5.96375,18.82 1.37875,2.9537 7.105,12.3375 3.44375,15.2437" />
      <path
         inkscape:connector-curvature="0"
         id="path456"
         style="fill:#d38a1f;fill-opacity:1;fill-rule:nonzero;stroke:none"
         d="m 298.15477,1066.1599 c -2.33125,0 -4.65375,-0.165 -6.945,-0.54 -5.2725,-0.86 -10.06875,-2.975 -15.07,-4.6175 -3.65875,-1.2013 -10.75375,-2.21 -13.22375,-5.8163 0.005,-0.3 0.006,-0.5987 0.006,-0.8975 0.625,-0.099 1.25375,-0.1437 1.88125,-0.1437 3.36875,0 6.72875,1.2987 9.60125,2.725 4.64,2.305 9.57,1.585 14.65625,2.3412 5.435,0.8088 10.17,2.68 15.725,2.68 0.30875,0 0.62125,-0.01 0.935,-0.018 6.1975,-0.2375 11.45125,-1.7462 16.98125,-4.385 0.94875,-0.4537 2.2675,-0.8162 3.685,-0.995 -1,0.5438 -1.99875,1.0863 -2.99,1.6263 1.3725,-0.6175 2.84,-1.1938 4.38375,-1.7375 0.16125,0 0.32375,-0.01 0.485,-0.01 2.56625,0 5.07375,0.705 6.03375,2.6375 -5.27375,0.98 -9.9275,2.3287 -15.27,3.7975 -6.6475,1.8287 -13.80125,3.3512 -20.875,3.3512" />
      <path
         inkscape:connector-curvature="0"
         id="path458"
         style="fill:#e8621a;fill-opacity:1;fill-rule:nonzero;stroke:none"
         d="m 262.91602,1055.1861 c -0.17625,-0.2587 -0.33,-0.53 -0.45625,-0.8162 0.15375,-0.03 0.30875,-0.057 0.4625,-0.081 0,0.2987 -0.001,0.5975 -0.006,0.8975" />
      <path
         inkscape:connector-curvature="0"
         id="path460"
         style="fill:#faceab;fill-opacity:1;fill-rule:nonzero;stroke:none"
         d="m 229.85102,1026.2499 c 0.0337,-0.1025 0.0687,-0.205 0.105,-0.3075 1.2225,-0.8938 3.28625,-0.505 5.94125,-1.26 0.82875,0.1837 1.6775,0.2575 2.545,0.2575 1.79,0 3.6575,-0.3138 5.5775,-0.6263 1.92,-0.3137 3.89375,-0.6262 5.89375,-0.6262 0.23875,0 0.4775,0 0.7175,0.014 -0.12375,0.01 -0.24375,0.025 -0.35875,0.044 -1.67,0.2787 -6.06375,1.3 -10.9775,1.3 -0.605,0 -1.2175,-0.015 -1.835,-0.05 -0.4325,-0.024 -0.8475,-0.035 -1.2425,-0.035 -3.41625,0 -5.47625,0.825 -6.36625,1.29" />
      <path
         inkscape:connector-curvature="0"
         id="path462"
         style="fill:#d38a1f;fill-opacity:1;fill-rule:nonzero;stroke:none"
         d="m 229.33477,1040.5261 c 0.085,-2.5362 -0.2775,-4.8712 -0.48875,-7.3137 0.03,-2.41 0.265,-4.7213 1.005,-6.9625 0.89,-0.465 2.95,-1.29 6.36625,-1.29 0.395,0 0.81,0.011 1.2425,0.035 0.6175,0.035 1.23,0.05 1.835,0.05 4.91375,0 9.3075,-1.0213 10.9775,-1.3 0.115,-0.019 0.235,-0.034 0.35875,-0.044 0.915,0.036 1.835,0.145 2.75875,0.3563 1.48875,0.3412 2.42,1.3875 2.99125,2.7887 -0.135,2.8338 0.315,5.4313 0.8075,7.8063 -0.025,0.6562 -0.0588,1.2825 -0.0888,1.8587 -0.0413,0 -0.0813,0 -0.1225,0 -1.32625,0 -2.535,-1.5237 -3.57375,-2.1437 -0.465,-0.2775 -1.675,-0.3913 -2.1775,-0.62 -0.78375,-0.3575 -1.34375,-1.2563 -2.205,-1.6525 -1.01125,-0.4663 -2.57625,-0.6613 -4.19125,-0.6613 -1.96,0 -3.99125,0.2875 -5.18875,0.73 -1.39125,0.5138 -1.67875,2.3525 -3.11875,2.5538 -0.0812,0.011 -0.16,0.016 -0.2375,0.016 -0.61875,0 -1.10375,-0.3462 -1.62625,-0.6912 -0.5225,-0.3463 -1.08375,-0.6925 -1.8525,-0.6925 -0.20375,0 -0.4225,0.024 -0.65875,0.079 -2.90875,0.6775 -2.5775,4.1813 -2.8125,7.0938" />
      <path
         inkscape:connector-curvature="0"
         id="path464"
         style="fill:#e8621a;fill-opacity:1;fill-rule:nonzero;stroke:none"
         d="m 257.18852,1034.6524 c -0.4925,-2.375 -0.9425,-4.9725 -0.8075,-7.8063 0.89,2.18 0.91,5.2213 0.8075,7.8063" />
      <path
         inkscape:connector-curvature="0"
         id="path466"
         style="fill:#faceab;fill-opacity:1;fill-rule:nonzero;stroke:none"
         d="m 234.27477,1077.7336 c 0.19625,-0.054 0.3975,-0.1025 0.60375,-0.1475 -0.1975,0.058 -0.3975,0.1088 -0.60375,0.1475 m 12.075,-1.3375 c -0.57875,0 -1.22,-0.051 -2.0675,-0.1337 0.6,-0.05 1.175,-0.08 1.7025,-0.08 0.4225,0 0.81375,0.019 1.1625,0.062 0.1475,0.019 0.30125,0.028 0.46,0.028 0.0588,0 0.1175,-10e-4 0.17625,0 -0.49375,0.09 -0.94125,0.1275 -1.43375,0.1275 m 5.2075,-1.0238 c 1.27125,-0.4037 2.5225,-0.79 3.54,-0.79 0.22375,0 0.43625,0.019 0.63625,0.06 -1.1625,0.51 -2.77,0.5625 -4.17625,0.73" />
      <path
         inkscape:connector-curvature="0"
         id="path468"
         style="fill:#d38a1f;fill-opacity:1;fill-rule:nonzero;stroke:none"
         d="m 233.31727,1077.8274 c -0.25875,0 -0.5275,-0.02 -0.81125,-0.066 -1.43875,-4.5438 -1.92125,-8.2613 -1.92125,-13.3913 0.0738,0.01 0.15125,0.01 0.2325,0.01 0.6075,0 1.37625,-0.1687 2.11875,-0.3375 0.74125,-0.1687 1.45625,-0.3375 1.95375,-0.3375 0.11,0 0.20875,0.01 0.29625,0.026 2.03625,0.425 1.44125,1.6975 3.2125,2.2163 0.2775,0.081 0.55,0.1187 0.82125,0.1187 1.18375,0 2.30625,-0.7025 3.45,-1.4037 1.14375,-0.7025 2.3075,-1.4038 3.575,-1.4038 0.21625,0 0.43625,0.021 0.66,0.065 1.48875,0.2975 3.825,2.7913 5.97875,2.7913 0.36625,0 0.72625,-0.071 1.07625,-0.2375 1.29375,-0.6163 2.06,-3.9925 3.13625,-3.9925 0.3825,0 0.80375,0.425 1.30125,1.5475 0.0275,0.062 0.0525,0.1275 0.0763,0.1975 -0.43375,3.0925 -0.9425,6.1575 -1.19375,9.1712 -0.33,0.77 -0.69125,1.3413 -1.05375,1.5788 -0.1525,0.099 -0.3175,0.1862 -0.4925,0.2625 -0.2,-0.041 -0.4125,-0.06 -0.63625,-0.06 -1.0175,0 -2.26875,0.3862 -3.54,0.79 -0.5825,0.07 -1.13125,0.16 -1.59875,0.31 -0.9025,0.29 -1.5725,0.4775 -2.175,0.5862 -0.0588,0 -0.1175,0 -0.17625,0 -0.15875,0 -0.3125,-0.01 -0.46,-0.027 -0.34875,-0.044 -0.74,-0.062 -1.1625,-0.062 -0.5275,0 -1.1025,0.03 -1.7025,0.08 -0.0825,-0.01 -0.16625,-0.016 -0.2525,-0.024 -0.72125,-0.071 -1.52125,-0.1112 -2.33125,-0.1112 -1.3,0 -2.62625,0.1037 -3.69,0.3537 -1.15,0.27 -2.09,0.7963 -3.13,1.105 -0.20625,0.045 -0.4075,0.094 -0.60375,0.1475 -0.305,0.059 -0.62125,0.094 -0.9575,0.094" />
      <path
         inkscape:connector-curvature="0"
         id="path470"
         style="fill:#e8621a;fill-opacity:1;fill-rule:nonzero;stroke:none"
         d="m 257.27977,1072.8011 c 0.25125,-3.0137 0.76,-6.0787 1.19375,-9.1712 0.64375,1.8975 -0.10375,6.62 -1.19375,9.1712" />
      <path
         inkscape:connector-curvature="0"
         id="path472"
         style="fill:#f7ba88;fill-opacity:1;fill-rule:nonzero;stroke:none"
         d="m 231.50727,1079.3899 c 0.005,-0.01 0.01,-0.014 0.015,-0.02 0.14375,-0.1788 0.3,-0.3413 0.46625,-0.49 -0.045,0.065 -0.0962,0.13 -0.155,0.1925 -0.11625,0.1275 -0.225,0.2312 -0.32625,0.3175" />
      <path
         inkscape:connector-curvature="0"
         id="path474"
         style="fill:#d38a1f;fill-opacity:1;fill-rule:nonzero;stroke:none"
         d="m 210.62727,1093.3911 c 0.32375,-7.77 5.1025,-15.5037 10.8975,-20.2737 3.38125,-2.7825 7.08875,-3.4713 5.31,-8.1925 -1.26,-3.345 -2.66625,-4.3575 -4.83875,-4.3575 -1.2425,0 -2.7375,0.3325 -4.59875,0.7475 -3.39875,0.7575 -5.0025,2.4025 -7.54375,4.435 -2.4925,1.9937 -5.67125,3.225 -8.385,4.9237 -2.67625,1.6763 -4.77,3.77 -7.56375,5.2625 -2.075,1.1088 -5.17125,3.7188 -7.62125,3.7188 -0.12,0 -0.23875,-0.01 -0.355,-0.019 0.855,-3.3413 5.655,-6.0863 8.3975,-7.8438 6.12375,-3.9275 12.17625,-7.945 18.37625,-11.8825 1.2775,-0.8112 8.5925,-4.7475 13.28,-5.8837 0.0787,0 0.15625,0 0.235,0 1.2275,0 2.4275,0.064 3.36875,0.6162 0.0413,-0.1262 0.0813,-0.255 0.1175,-0.3862 0.1525,0.19 0.24125,0.4337 0.25625,0.74 0.78125,2.2512 -0.045,7.1225 0.315,10.7712 0.32125,3.2488 0.61,6.3575 1.24875,9.5413 0.2025,1.0087 1.25,2.4412 0.465,3.5725 -0.16625,0.1487 -0.3225,0.3112 -0.46625,0.49 -0.005,0.01 -0.01,0.013 -0.015,0.02 -0.2625,0.22 -0.47875,0.3087 -0.6675,0.3087 -0.685,0 -1.00625,-1.1787 -1.88875,-1.5162 -0.96,-0.3663 -1.75375,-0.5363 -2.4425,-0.5363 -2.09875,0 -3.21,1.5713 -4.98625,3.9113 -1.45875,1.9225 -3.135,3.4662 -4.68,5.3 -1.71,2.0262 -3.26,6.4412 -6.215,6.5337" />
      <path
         inkscape:connector-curvature="0"
         id="path476"
         style="fill:#f7ba88;fill-opacity:1;fill-rule:nonzero;stroke:none"
         d="m 229.33477,1026.5574 c 0,0 -0.0325,-0.065 -0.0987,-0.1938 0.20375,-0.2575 0.44125,-0.4112 0.72375,-0.4312 -0.001,0 -0.002,0.01 -0.004,0.01 -0.2,0.1475 -0.37875,0.3287 -0.5325,0.555 -0.06,0.039 -0.0888,0.06 -0.0888,0.06" />
      <path
         inkscape:connector-curvature="0"
         id="path478"
         style="fill:#d38a1f;fill-opacity:1;fill-rule:nonzero;stroke:none"
         d="m 229.70352,1054.2549 c -0.3025,-0.375 -0.855,-0.5375 -1.58,-0.5375 -0.6075,0 -1.335,0.1125 -2.14125,0.3087 -0.10375,0 -0.2075,10e-4 -0.3125,10e-4 -0.1825,10e-4 -0.365,0 -0.54625,0 -0.36,0 -0.715,-0.01 -1.06125,-0.027 0.85375,-2.185 3.355,-4.2725 1.69375,-7.1337 -1.43625,-2.4725 -5.32125,-2.6613 -7.205,-5.18 -2.745,-3.6675 -3.79625,-8.2538 -5.54375,-12.4125 -3.15125,-7.4963 -9.1875,-13.6525 -12.0775,-21.11 0.0725,-0.01 0.14625,-0.01 0.22,-0.01 3.25125,0 7.045,6.1775 8.5,8.555 2.0375,3.3275 5.03875,6.2412 6.8025,9.5312 1.5075,2.8125 2.9025,6.2913 4.98375,8.7663 1.66,1.9737 2.85625,2.7575 3.74,2.7575 3.0375,0 2.37625,-9.2738 4.06,-11.405 0.0662,0.1287 0.0987,0.1937 0.0987,0.1937 0,0 0.0288,-0.021 0.0888,-0.06 -0.43125,0.6325 -0.67625,1.6163 -0.71375,3.185 -0.0288,1.2213 0.0375,2.3875 0.13625,3.53 -0.025,1.9313 0.0812,3.925 0.165,5.9938 0.1725,4.3 1.8725,10.7862 0.6925,15.0487" />
      <path
         inkscape:connector-curvature="0"
         id="path480"
         style="fill:#f3a168;fill-opacity:1;fill-rule:nonzero;stroke:none"
         d="m 229.42352,1026.4974 c 0.15375,-0.2263 0.3325,-0.4075 0.5325,-0.555 -0.0362,0.1025 -0.0712,0.205 -0.105,0.3075 -0.2025,0.1062 -0.345,0.1937 -0.4275,0.2475" />
      <path
         inkscape:connector-curvature="0"
         id="path482"
         style="fill:#e8631a;fill-opacity:1;fill-rule:nonzero;stroke:none"
         d="m 228.84602,1033.2124 c -0.0988,-1.1425 -0.165,-2.3088 -0.13625,-3.53 0.0375,-1.5688 0.2825,-2.5525 0.71375,-3.185 0.0825,-0.054 0.225,-0.1413 0.4275,-0.2475 -0.74,2.2412 -0.975,4.5525 -1.005,6.9625" />
      <path
         inkscape:connector-curvature="0"
         id="path484"
         style="fill:#e65814;fill-opacity:1;fill-rule:nonzero;stroke:none"
         d="m 229.58602,1054.6411 c -0.94125,-0.5525 -2.14125,-0.6162 -3.36875,-0.6162 -0.0787,0 -0.15625,0 -0.235,0 0.80625,-0.1963 1.53375,-0.3088 2.14125,-0.3088 0.725,0 1.2775,0.1625 1.58,0.5375 -0.0362,0.1313 -0.0762,0.26 -0.1175,0.3863" />
      <path
         inkscape:connector-curvature="0"
         id="path486"
         style="fill:#d38a1f;fill-opacity:1;fill-rule:nonzero;stroke:none"
         d="m 194.50102,1059.0599 c -0.11125,0 -0.2225,0 -0.33375,0 -11.06375,-0.13 -23.23588,-1.1375 -33.51313,-5.085 -3.875,-1.4888 -11.1895,0.4075 -14.16062,-2.7275 0.12837,-0.1213 0.25725,-0.24 0.38712,-0.355 2.49225,-1.1225 4.97563,-2.2575 7.4575,-3.3988 0.77838,-0.105 1.56738,-0.1525 2.36338,-0.1525 4.68112,0 9.61912,1.6425 14.21925,3.03 10.06825,3.0363 20.9815,3.0638 31.53025,3.0638 3.93,0 8.085,-0.2938 11.895,-0.2938 2.61625,0 5.06875,0.1388 7.17625,0.6063 -8.97875,0.77 -17.72,5.315 -27.02125,5.315" />
      <path
         inkscape:connector-curvature="0"
         id="path488"
         style="fill:#e45310;fill-opacity:1;fill-rule:nonzero;stroke:none"
         d="m 146.88064,1050.8899 c 2.28863,-2.0338 4.814,-3.0438 7.4575,-3.3988 -2.48187,1.1413 -4.96525,2.2763 -7.4575,3.3988" />
      <path
         inkscape:connector-curvature="0"
         id="path490"
         style="fill:#f0842f;fill-opacity:1;fill-rule:nonzero;stroke:none"
         d="m 326.38727,1056.4936 c 0.21125,-0.115 0.42375,-0.23 0.635,-0.345 l 0,0 c 0.27375,-0.057 0.55,-0.1237 0.8225,-0.1725 -0.34125,0.1563 -0.6825,0.3125 -1.025,0.47 -0.145,0.014 -0.28875,0.03 -0.4325,0.047" />
      <path
         inkscape:connector-curvature="0"
         id="path492"
         style="fill:#fbd9bd;fill-opacity:1;fill-rule:nonzero;stroke:none"
         d="m 327.84477,1055.9761 0,0 c 0.0212,0 0.0425,-0.01 0.0625,-0.011 l 0,0 c -0.02,0 -0.0413,0.01 -0.0625,0.011" />
      <path
         inkscape:connector-curvature="0"
         id="path494"
         style="fill:#f0842f;fill-opacity:1;fill-rule:nonzero;stroke:none"
         d="m 326.81977,1056.4461 c 0.3425,-0.1575 0.68375,-0.3137 1.025,-0.47 l 0,0 c 0.0212,0 0.0425,-0.01 0.0625,-0.011 0.6375,-0.1137 1.27,-0.1962 1.90125,-0.265 -0.68875,0.2225 -1.365,0.45 -2.0275,0.6825 -0.32125,0.011 -0.6425,0.033 -0.96125,0.064" />
      <path
         inkscape:connector-curvature="0"
         id="path496"
         style="fill:#e65712;fill-opacity:1;fill-rule:nonzero;stroke:none"
         d="m 327.84477,1055.9761 0,0 c 0.0212,0 0.0425,-0.01 0.0625,-0.011 -0.02,0 -0.0413,0.01 -0.0625,0.011" />
      <path
         inkscape:connector-curvature="0"
         id="path498"
         style="fill:#ec7324;fill-opacity:1;fill-rule:nonzero;stroke:none"
         d="m 323.39727,1058.1199 c 0.99125,-0.54 1.99,-1.0825 2.99,-1.6263 0.14375,-0.017 0.2875,-0.034 0.4325,-0.047 -0.30625,0.14 -0.61375,0.2813 -0.9225,0.4238 0.30875,-0.1425 0.61625,-0.2838 0.9225,-0.4238 0.31875,-0.031 0.64,-0.053 0.96125,-0.064 -1.54375,0.5438 -3.01125,1.12 -4.38375,1.7375" />
      <path
         inkscape:connector-curvature="0"
         id="path500"
         style="fill:#fcdec6;fill-opacity:1;fill-rule:nonzero;stroke:none"
         d="m 295.01227,959.94488 c 4.055,-2.9063 8.00125,-5.7613 10.24375,-7.5525 -2.24125,1.7912 -6.1875,4.645 -10.24375,7.5525 l 0,0 m 10.2475,-7.555 c 0.0375,-0.03 0.075,-0.06 0.11125,-0.09 -0.0362,0.03 -0.0737,0.06 -0.11125,0.09 m 0.1125,-0.091 c 0.009,-0.01 0.0175,-0.014 0.0263,-0.021 -0.009,0.01 -0.0175,0.015 -0.0263,0.021 m 0.0363,-0.029 c 0.006,-0.01 0.0125,-0.01 0.0187,-0.015 -0.006,0.01 -0.0125,0.01 -0.0187,0.015 m 0.0262,-0.021 c 0.006,0 0.0125,-0.01 0.0188,-0.015 -0.006,0 -0.0125,0.01 -0.0188,0.015 m 0.0312,-0.025 c 0.004,0 0.008,-0.01 0.0113,-0.01 -0.004,0 -0.007,0.01 -0.0113,0.01 m 0.0275,-0.023 c 0.004,0 0.009,-0.01 0.0125,-0.01 -0.004,0 -0.009,0.01 -0.0125,0.01 m 0.0213,-0.016 c 0.006,0 0.0125,-0.011 0.0188,-0.016 -0.006,0.01 -0.0125,0.011 -0.0188,0.016 m 0.0288,-0.024 c 0.005,0 0.009,-0.01 0.0137,-0.011 -0.005,0 -0.01,0.01 -0.0137,0.011 m 0.025,-0.02 c 0.005,0 0.009,-0.01 0.0137,-0.011 -0.005,0 -0.009,0.01 -0.0137,0.011 m 0.0275,-0.023 c 0.006,-0.01 0.0125,-0.01 0.0175,-0.015 -0.005,0.01 -0.0125,0.01 -0.0175,0.015 m 0.0225,-0.019 c 0.005,0 0.0113,-0.01 0.0163,-0.012 -0.005,0 -0.0113,0.01 -0.0163,0.012 m 0.04,-0.033 c 0.004,0 0.007,-0.01 0.0112,-0.01 -0.004,0 -0.007,0.01 -0.0112,0.01 m 0.0487,-0.04 c 0.005,0 0.009,-0.01 0.0125,-0.01 -0.004,0 -0.009,0.01 -0.0125,0.01 m 0.0238,-0.02 c 0.004,0 0.007,-0.01 0.0125,-0.01 -0.005,0 -0.009,0.01 -0.0125,0.01 m 0.0238,-0.019 c 0.005,0 0.01,-0.01 0.015,-0.012 -0.005,0 -0.01,0.01 -0.015,0.012 m 0.0237,-0.02 c 0.005,0 0.009,-0.01 0.0125,-0.01 -0.004,0 -0.007,0.01 -0.0125,0.01 m 0.025,-0.02 c 0.005,0 0.01,-0.01 0.015,-0.014 -0.005,0.01 -0.01,0.01 -0.015,0.014 m 0.0225,-0.019 c 0.005,-0.01 0.01,-0.01 0.015,-0.013 -0.005,0 -0.01,0.01 -0.015,0.013 m 0.025,-0.021 c 0.005,0 0.009,-0.01 0.0137,-0.011 -0.005,0 -0.009,0.01 -0.0137,0.011 m 0.0225,-0.019 c 0.009,-0.01 0.0163,-0.014 0.0238,-0.02 -0.007,0.01 -0.015,0.014 -0.0238,0.02" />
      <path
         inkscape:connector-curvature="0"
         id="path502"
         style="fill:#d3a91f;fill-opacity:1;fill-rule:nonzero;stroke:none"
         d="m 327.02227,1056.1486 c 12.67875,-6.8975 25.67125,-14.3375 31.375,-28.0287 -6.25,-2.5 -10,-7.5 -12.5,-12.5 -6.25,-13.75 -15,-26.25002 -23.75,-37.50002 -2.5,-3.75 -6.25,-11.25 -10,-15 -2.9225,-3.2463 -6.35,-4.55 -10.02125,-4.55 -2.2975,0 -4.69,0.5112 -7.11375,1.375 4.05625,-2.9075 8.0025,-5.7613 10.24375,-7.5525 0.001,0 0.002,0 0.004,0 0.0375,-0.03 0.075,-0.06 0.11125,-0.09 0,0 0.001,0 0.001,0 0.009,-0.01 0.0175,-0.014 0.0263,-0.021 0.004,0 0.008,0 0.01,-0.01 0.006,-0.01 0.0125,-0.01 0.0187,-0.015 0.002,0 0.005,0 0.007,-0.01 0.006,0 0.0125,-0.01 0.0188,-0.015 0.004,0 0.009,-0.01 0.0125,-0.01 0.004,0 0.008,-0.01 0.0113,-0.01 0.005,0 0.0112,-0.01 0.0162,-0.014 0.004,0 0.009,-0.01 0.0125,-0.01 0.002,0 0.006,-0.01 0.009,-0.01 0.006,0 0.0125,-0.011 0.0188,-0.016 0.004,0 0.006,0 0.01,-0.01 0.004,0 0.009,-0.01 0.0137,-0.011 0.004,0 0.008,-0.01 0.0113,-0.01 0.005,-0.01 0.009,-0.01 0.0137,-0.011 0.005,0 0.009,-0.01 0.0138,-0.011 0.005,-0.01 0.0125,-0.01 0.0175,-0.015 0.002,0 0.004,0 0.005,0 0.005,0 0.0113,-0.01 0.0163,-0.013 0.007,-0.01 0.015,-0.014 0.0238,-0.02 0.004,0 0.007,-0.01 0.0112,-0.01 0.0125,-0.01 0.025,-0.02 0.0375,-0.03 0.004,0 0.009,-0.01 0.0125,-0.01 0.004,0 0.007,-0.01 0.0112,-0.01 0.004,0 0.007,-0.01 0.0125,-0.01 0.004,0 0.008,-0.01 0.0113,-0.01 0.005,0 0.01,-0.01 0.015,-0.013 0.002,0 0.006,0 0.009,-0.01 0.005,0 0.009,-0.01 0.0125,-0.01 0.004,0 0.009,-0.01 0.0125,-0.01 0.005,0 0.01,-0.01 0.015,-0.014 0.002,0 0.005,0 0.007,-0.01 0.005,0 0.01,-0.01 0.015,-0.013 0.004,0 0.006,-0.01 0.01,-0.01 0.005,0 0.009,-0.01 0.0137,-0.011 0.004,0 0.006,0 0.009,-0.01 0.009,-0.01 0.0163,-0.014 0.0238,-0.02 l 0,0 c 3.75,-3.125 10.9375,-10 15,-11.25 0.435,-0.1338 0.8675,-0.1963 1.295,-0.1963 3.5675,0 6.88625,4.315 9.955,7.3838 3.4375,3.4375 14.375,19.375 18.75,23.125 4.375,3.75 9.0625,15.625 12.8125,20 3.75,4.375 5.9375,10.93752 10.3125,15.00002 4.375,4.0625 8.125,8.125 9.6875,10.625 1.05625,1.69 1.82625,3.5225 1.82875,4.8212 0.001,0.6238 -0.17375,1.125 -0.57875,1.4288 -0.91125,0.6837 -6.4575,4.845 -9.04125,7.055 -1.28625,0.5087 -2.53125,1.1812 -3.77125,2.0075 -14.3975,10.7987 -28.79875,16.9937 -44.3025,24.1062 l 0,0 c -0.2725,0.049 -0.54875,0.115 -0.8225,0.1725" />
      <path
         inkscape:connector-curvature="0"
         id="path504"
         style="fill:#fcdec6;fill-opacity:1;fill-rule:nonzero;stroke:none"
         d="m 195.91102,1133.7299 c 0.39625,-0.4288 0.8875,-0.9563 1.4575,-1.5688 -0.57,0.6125 -1.06125,1.14 -1.4575,1.5688" />
      <path
         inkscape:connector-curvature="0"
         id="path506"
         style="fill:#d3a91f;fill-opacity:1;fill-rule:nonzero;stroke:none"
         d="m 162.88852,1159.0188 c -1.58938,0 -3.354,-2.9775 -7.61625,-7.7739 -5,-5.625 -11.5625,-12.5 -15.3125,-16.25 -3.75,-3.75 -9.0625,-15.3125 -14.6875,-20.9375 -5.625,-5.625 -11.5625,-18.4375 -13.4375,-21.5625 -1.875,-3.125 -10,-14.6875 -10,-17.1875 0,-2.5 1.875,-5 5.9375,-6.5625 4.0625,-1.5625 10.625,-5.9375 10.625,-5.9375 l 0,0 c 0,0 -0.0185,-0.1288 -0.0497,-0.3538 l 0,0 c 6.63662,-2.2825 13.123,-4.8637 19.53075,-7.605 -3.43025,12.3725 -0.77688,24.3163 8.019,37.0213 2.5,2.5 2.5,7.5 3.75,11.25 12.34175,17.6312 28.41362,24.6887 46.4625,24.6887 1.80625,0 3.63375,-0.071 5.4775,-0.2087 -1.63375,1.7837 -3.08375,3.3412 -4.21875,4.5612 -0.57,0.6125 -1.06125,1.14 -1.4575,1.5688 -0.004,0 -0.009,0.01 -0.0137,0.015 l 0,0 c -3.75,4.0625 -10.9375,10 -13.4375,11.875 -2.5,1.875 -6.5625,6.875 -10.3125,8.4375 -3.75,1.5625 -6.5625,3.4375 -8.4375,4.6875 -0.27688,0.185 -0.54638,0.2739 -0.82125,0.2739" />
      <path
         inkscape:connector-curvature="0"
         id="path508"
         style="fill:#e65913;fill-opacity:1;fill-rule:nonzero;stroke:none"
         d="m 118.34752,1062.4536 c 6.63762,-2.2825 13.1235,-4.87 19.53212,-7.61 -5e-4,0 -8.7e-4,0 -0.001,0.01 -6.40775,2.7413 -12.89412,5.3225 -19.53075,7.605" />
      <path
         inkscape:connector-curvature="0"
         id="path510"
         style="fill:#fcdec6;fill-opacity:1;fill-rule:nonzero;stroke:none"
         d="m 209.49602,981.70238 c -0.002,0 -0.004,0 -0.005,-0.01 0.001,0 0.003,0.01 0.005,0.01 m -0.1725,-0.2813 c -0.002,0 -0.005,-0.01 -0.006,-0.011 0.003,0 0.004,0.01 0.006,0.011 m -0.045,-0.072 c -0.002,0 -0.004,-0.01 -0.006,-0.011 0.003,0 0.004,0.01 0.006,0.011 m -0.0225,-0.036 c -0.002,0 -0.005,-0.01 -0.007,-0.013 0.002,0 0.006,0.01 0.007,0.013 m -0.02,-0.034 c -0.004,-0.01 -0.007,-0.013 -0.0125,-0.019 0.005,0.01 0.009,0.013 0.0125,0.019 m -0.0237,-0.038 c -0.015,-0.025 -0.03,-0.049 -0.0438,-0.072 0.015,0.024 0.0288,0.048 0.0438,0.072 m -0.0525,-0.086 c -0.005,-0.01 -0.0112,-0.017 -0.0162,-0.025 0.005,0.01 0.0113,0.016 0.0162,0.025 m -0.0225,-0.035 c -0.005,-0.01 -0.01,-0.017 -0.015,-0.026 0.005,0.01 0.01,0.018 0.015,0.026 m -0.0238,-0.04 c -0.006,-0.01 -0.0125,-0.02 -0.02,-0.031 0.008,0.01 0.0138,0.021 0.02,0.031 m -0.02,-0.031 c -0.007,-0.013 -0.015,-0.024 -0.0225,-0.036 0.007,0.013 0.015,0.024 0.0225,0.036 m -0.0237,-0.04 c -0.008,-0.011 -0.015,-0.024 -0.0225,-0.035 0.008,0.011 0.015,0.024 0.0225,0.035 m -0.0238,-0.039 c -0.009,-0.011 -0.0162,-0.025 -0.0238,-0.038 0.008,0.013 0.015,0.025 0.0238,0.038" />
      <path
         inkscape:connector-curvature="0"
         id="path512"
         style="fill:#d3a91f;fill-opacity:1;fill-rule:nonzero;stroke:none"
         d="m 142.13602,1041.9224 c -8.35638,-2.47 -16.6055,-5.4325 -24.98588,-7.2125 -10e-4,0 -0.005,0 -0.007,0 -0.0254,0 -0.0494,-0.01 -0.0747,-0.015 -0.004,0 -0.0102,0 -0.0146,0 -0.0699,-0.015 -0.13962,-0.029 -0.2095,-0.044 -0.0113,0 -0.0205,0 -0.0318,-0.01 -0.017,0 -0.0346,-0.01 -0.0517,-0.011 -0.0136,0 -0.0282,-0.01 -0.042,-0.01 -0.0151,0 -0.0312,-0.01 -0.0464,-0.01 -0.018,0 -0.0346,-0.01 -0.0528,-0.01 -0.0121,0 -0.0249,-0.01 -0.0371,-0.01 -0.0307,-0.01 -0.06,-0.011 -0.0907,-0.018 0.018,-0.1288 0.0303,-0.2038 0.0303,-0.2038 l 0,0 -12.5,-4.375 c 0,0 10,-17.1875 11.5625,-19.375 0.30475,-0.4262 0.54838,-0.925 0.74613,-1.45 6.90762,-5.6937 11.63087,-13.93252 18.17037,-20.42502 l 0.146,0 c 0,0 4.375,-2.8125 5.625,-4.375 0.26613,-0.3325 0.3765,-0.905 0.376,-1.65 -5e-4,-2.7537 -1.51325,-7.8512 -2.251,-11.7875 -0.70312,-3.75 -1.05462,-8.3787 -1.05462,-12.3037 0,-1.3088 0.039,-2.54 0.11712,-3.6338 0.3125,-4.375 1.875,-8.4375 1.875,-8.4375 0,0 23.4375,1.875 36.5625,9.0625 13.125,7.1875 29.0625,18.75 33.125,25.3125 l 0,0 c 0.008,0.013 0.015,0.026 0.0238,0.038 0,0 0.001,0 0.001,0 0.008,0.011 0.015,0.024 0.0225,0.035 0,0 0.001,0 0.001,0 0.007,0.013 0.015,0.024 0.0225,0.036 l 0,0 c 0.008,0.011 0.0138,0.021 0.02,0.031 0.002,0.01 0.005,0.01 0.009,0.014 0.005,0.01 0.01,0.018 0.015,0.026 0.002,0 0.005,0.01 0.006,0.01 0.005,0.01 0.0113,0.016 0.0162,0.025 0.002,0.01 0.005,0.01 0.009,0.014 0.0138,0.024 0.0288,0.048 0.0438,0.072 0.004,0.01 0.007,0.013 0.0112,0.019 0.005,0.01 0.009,0.013 0.0125,0.019 0.004,0.01 0.009,0.014 0.0125,0.021 0.002,0 0.005,0.01 0.007,0.013 0.006,0.01 0.0113,0.016 0.0162,0.025 0.003,0 0.004,0.01 0.006,0.011 0.0125,0.02 0.0263,0.041 0.0387,0.061 0.001,0 0.004,0.01 0.006,0.011 0.055,0.09 0.11125,0.1812 0.1675,0.2725 0.001,0 0.003,0 0.005,0.01 3.56875,5.8375 8.89375,15.335 11.2075,22.26002 -11.10625,-12.93502 -23.705,-26.98382 -35.2725,-26.98382 -3.73,0 -7.35312,1.4613 -10.78375,4.8913 -6.25,5 -16.25,20.00002 -22.5,32.50002 -3.75,8.75 -10,15 -11.25,25 0,0.7587 0.57713,1.6337 1.23875,2.5525" />
      <path
         inkscape:connector-curvature="0"
         id="path514"
         style="fill:#e65913;fill-opacity:1;fill-rule:nonzero;stroke:none"
         d="m 117.15014,1034.7099 c -0.002,0 -0.005,0 -0.007,0 10e-4,0 0.005,0 0.007,0 m -0.0815,-0.016 c -0.004,0 -0.01,0 -0.0146,0 0.004,0 0.0102,0 0.0146,0 m -0.22412,-0.048 c -0.0108,0 -0.021,0 -0.0318,-0.01 0.0113,0 0.0205,0 0.0318,0.01 m -0.0835,-0.017 c -0.0141,0 -0.0277,-0.01 -0.042,-0.01 0.0138,0 0.0284,0.01 0.042,0.01 m -0.0884,-0.019 c -0.018,0 -0.0346,-0.01 -0.0528,-0.01 0.0181,0 0.0348,0.01 0.0528,0.01 m -0.0899,-0.019 c -0.0302,-0.01 -0.0605,-0.013 -0.0907,-0.018 l 0,0 c 0.0307,0.01 0.06,0.011 0.0907,0.018" />
      <path
         inkscape:connector-curvature="0"
         id="path516"
         style="fill:#fcdec6;fill-opacity:1;fill-rule:nonzero;stroke:none"
         d="m 328.70977,1171.2449 c 0,0 -17.1875,-5.3125 -27.1875,-9.6875 -10,-4.375 -19.6875,-14.6875 -25,-19.375 -0.009,-0.01 -0.0187,-0.016 -0.0275,-0.024 0.009,0.01 0.0188,0.016 0.0275,0.024 5.3125,4.6875 15,15 25,19.375 10,4.375 27.1875,9.6875 27.1875,9.6875 0,0 4.0625,-4.6875 5.3125,-7.5 1.25,-2.8125 4.0625,-10 5,-15 0.53,-2.8276 2.15875,-7.8511 3.475,-11.685 l 0,0 c -1.31625,3.8339 -2.945,8.8574 -3.475,11.685 -0.9375,5 -3.75,12.1875 -5,15 -1.25,2.8125 -5.3125,7.5 -5.3125,7.5 m -52.225,-29.0953 c -0.006,-0.01 -0.0125,-0.011 -0.0188,-0.017 0.006,0.01 0.0125,0.011 0.0188,0.017 m -0.0288,-0.026 c -0.007,-0.01 -0.0137,-0.013 -0.02,-0.019 0.006,0.01 0.0125,0.013 0.02,0.019 m -0.0288,-0.025 c -0.009,-0.01 -0.0175,-0.016 -0.0263,-0.025 0.009,0.01 0.0175,0.017 0.0263,0.025 m -0.0387,-0.036 c -0.005,0 -0.01,-0.01 -0.015,-0.014 0.005,0 0.01,0.01 0.015,0.014 m -0.0288,-0.026 c -0.004,0 -0.009,-0.01 -0.0125,-0.011 0.004,0 0.009,0.01 0.0125,0.011 m -0.0762,-0.07 c 0,0 0,0 0,0 0,0 0,0 0,0 m 97.07125,-66.5662 c -0.005,0 -0.009,-0.01 -0.0137,-0.01 10e-4,0 0.002,0 0.002,0 0.004,0 0.007,0 0.0112,0.01 l 0,0" />
      <path
         inkscape:connector-curvature="0"
         id="path518"
         style="fill:#d3a91f;fill-opacity:1;fill-rule:nonzero;stroke:none"
         d="m 328.70977,1171.2449 c 0,0 -17.1875,-5.3125 -27.1875,-9.6875 -10,-4.375 -19.6875,-14.6875 -25,-19.375 -0.009,-0.01 -0.0187,-0.016 -0.0275,-0.024 -0.004,0 -0.006,-0.01 -0.01,-0.01 -0.006,-0.01 -0.0125,-0.011 -0.0188,-0.017 -0.004,0 -0.007,-0.01 -0.01,-0.01 -0.007,-0.01 -0.0137,-0.013 -0.02,-0.019 -0.004,0 -0.006,0 -0.009,-0.01 -0.009,-0.01 -0.0175,-0.016 -0.0263,-0.025 -0.004,0 -0.007,-0.01 -0.0125,-0.011 -0.005,0 -0.01,-0.01 -0.015,-0.014 -0.005,0 -0.009,-0.01 -0.0137,-0.013 -0.004,0 -0.009,-0.01 -0.0125,-0.011 -0.0213,-0.02 -0.0425,-0.038 -0.0637,-0.058 0,-10e-4 0,-10e-4 0,-10e-4 -1.9575,-1.8433 -3.8675,-5.056 -5.62,-8.656 0.635,0.3675 1.175,0.7525 1.48375,1.0612 6.60625,9.4375 16.775,13.8873 26.74125,13.8873 3.23375,0 6.44625,-0.4688 9.50875,-1.3873 13.75,-2.5 10,-22.5 13.75,-36.25 1.25,-6.25 11.25,-11.25 15,-15 6.25,-7.5 21.25,-8.75 26.25,-13.75 7.05375,-8.2287 -8.00375,-17.5625 -18.14,-23.8437 9.95,3.83 19.21,11.355 28.08375,17.3637 0.005,0 0.009,0.01 0.0137,0.01 0.008,0.01 0.015,0.01 0.0225,0.015 0.015,0.01 0.0288,0.02 0.045,0.03 l 0,0 c -0.18375,0.8575 -0.3375,1.425 -0.3375,1.425 l 0,0 c 0,0 13.4375,11.5625 16.25,14.375 1.0325,1.0338 1.43375,1.94 1.43375,2.7813 0.001,1.4512 -1.185,2.71 -2.37125,4.0937 -1.875,2.1875 -7.5,5.9375 -10.9375,7.8125 -3.42875,1.8713 -9.03375,3.43 -10.61125,4.9888 -13.0025,4.2425 -24.37375,11.4437 -24.375,25.0612 l 0,0 c 0,0.355 0.009,0.7138 0.0237,1.0775 -1.31625,3.8339 -2.945,8.8574 -3.475,11.685 -0.9375,5 -3.75,12.1875 -5,15 -1.25,2.8125 -5.3125,7.5 -5.3125,7.5" />
      <path
         inkscape:connector-curvature="0"
         id="path520"
         style="fill:#e65913;fill-opacity:1;fill-rule:nonzero;stroke:none"
         d="m 373.42227,1075.4449 c -0.0163,-0.01 -0.03,-0.02 -0.045,-0.03 0.0138,0.01 0.03,0.02 0.045,0.03 m -0.0675,-0.045 c -0.004,0 -0.007,-0.01 -0.0112,-0.01 0.004,0 0.007,0 0.0112,0.01" />
      <path
         inkscape:connector-curvature="0"
         id="path522"
         style="fill:#d3a941;fill-opacity:0.59420288;fill-rule:nonzero;stroke:none"
         d="m 229.64727,1052.2874 c 0,-3.5938 -0.97875,-9.3025 0.50125,-12.445 1.52375,0.8012 2.67375,2.4125 3.32,4.0375 1.75125,-0.4813 2.115,-1.8413 4.1175,-2.4463 0.44875,-0.1362 1.60375,1.02 2.4775,0.8613 1.5775,-0.285 2.06625,-1.1675 3.365,-1.9975 1.30625,-0.8338 2.8725,-3.2038 4.97875,-3.0413 1.745,0.1338 2.3425,2.2013 4.15625,2.5525 2.54,0.4913 3.16375,-2.2987 5.02,0.8138 0.5225,0.875 0.3025,4.68 0.41875,5.8312 0.38625,3.8238 1.06,8.2913 0.74875,12.0188 -2.9975,0.23 -1.82625,-2.9113 -3.6775,-4.1538 -1.60125,-1.0737 -3.56,0.4275 -5.445,-1.165 -1.89375,2.62 -1.44,3.615 -4.5625,4.4375 -3.1525,0.83 -2.96625,-0.8612 -6.07875,-1.1412 -3.44625,-0.31 -2.33125,1.7037 -4.7475,2.835 -1.23,0.575 -3.625,0.3625 -4.945,0.4475 0.0987,-1.8813 0.52125,-3.8288 0.3525,-7.445" />
      <path
         inkscape:connector-curvature="0"
         id="path524"
         style="fill:#d3a941;fill-opacity:0.59420288;fill-rule:nonzero;stroke:none"
         d="m 282.56352,968.11988 c 5.5175,-2.6713 11.76375,-6.2513 16.77125,-9.8863 2.8625,-2.0787 6.32,-4.0612 9.07375,-6.3737 2.005,-1.6838 5.12875,-6.8 6.6525,-2.905 0.61375,1.57 -1.265,3.6337 -0.82875,5.415 0.49375,2.0212 1.82625,2.0637 3.01875,3.73 2.81375,3.935 5.43,7.8525 8.98,11.3737 2.1375,2.12 4.46125,1.5363 6.75625,3.4175 1.8075,1.4813 2.95125,5.5813 4.16,7.6275 3.305,5.5938 8.47375,9.4238 9.56,15.6338 1.155,6.59752 4.32625,7.73622 7.56125,12.97872 2.57125,4.1663 1.89375,9.6313 4.71,13.6938 1.50375,2.17 4.4,6.5462 6.48,8.1175 1.8275,1.38 5.4125,0.2812 4.95625,3.3562 -6.38125,2.14 -12.9775,5.7338 -18.615,9.2613 -3.765,2.3562 -11.11875,8.325 -15.46125,6.6087 0.51875,-2.3662 2.8725,-3.5362 3.56625,-5.8175 0.7975,-2.6262 -0.2975,-1.8875 -0.47375,-4.1175 -0.23375,-2.9512 1.485,-7.2737 0.5575,-10.1312 -1.12375,-3.465 -6.77,-5.7788 -9.4425,-8.1825 -2.22125,-1.9975 -4.96,-3.8625 -6.36125,-6.6063 -1.7075,-3.3425 0.17625,-5.69 -0.71125,-9.0112 -1.015,-3.795 -3.9725,-2.3488 -5.77875,-4.8113 -1.91625,-2.61372 0.495,-4.60252 -0.1525,-7.49372 -0.71375,-3.1838 -3.19125,-2.925 -4.57625,-5.3313 -1.6925,-2.9425 -0.13125,-6.6662 -1.2775,-9.6912 -1.26,-3.3288 -5.34625,-6.3213 -8.1775,-8.3425 -4.35125,-3.1075 -6.65625,-1.2213 -11.68125,-0.88 0.39375,-0.5213 0.65875,-2.185 1.1275,-2.8175 -3.35875,-1.165 -7.34,-1.6288 -10.39375,1.185" />
      <path
         inkscape:connector-curvature="0"
         id="path526"
         style="fill:#d3a941;fill-opacity:0.59420288;fill-rule:nonzero;stroke:none"
         d="m 168.81377,1049.7874 c -5.76075,-0.089 -12.22363,-4.41 -17.51125,-6.5638 -5.07663,-2.0675 -13.73975,-2.3687 -16.9795,-7.9062 -3.375,-5.7688 4.0625,-3.5113 6.49125,-7.1875 0.99512,-1.5063 0.24125,-3.34 0.4995,-5.0075 0.38962,-2.515 1.34662,-3.9 2.40575,-6.2738 1.67775,-3.7575 4.17437,-7.42 5.82175,-11.1375 0.70025,-1.5787 0.27787,-3.7425 0.93125,-5.0887 1.30262,-2.68632 5.17275,-3.37632 7.121,-5.83502 1.72362,-2.1763 1.5235,-5.0763 2.459,-7.51 1.07575,-2.7963 2.896,-5.5225 5.01125,-7.8113 4.665,-5.0475 5.19,-8.0012 5.458,-14.595 3.12062,-1.3212 7.08837,-0.9212 6.6885,-5.4375 11.877,0.8325 25.61575,11.9625 31.19325,22.3475 -3.2625,0.665 -7.695,-3.83 -10.89125,-2.4375 -3.86375,1.6825 -0.89375,5.785 -0.7225,7.945 0.0725,0.9175 -1.36375,1.565 -1.265,2.575 0.16625,1.7063 0.935,2.885 1.2275,4.5363 0.44,2.4887 1.455,2.735 -0.34875,4.4587 -3.89125,3.71502 -12.205,-1.415 -16.35775,2.36502 -3.18413,2.8988 -3.98688,9.6488 -5.84288,13.405 -2.07562,4.2038 -8.21037,9.305 -5.5605,15.1338 0.67575,1.4862 2.93463,1.3987 3.6265,2.8987 0.85,1.84 -0.59625,2.7163 -0.56937,4.2075 0.04,2.2388 0.78325,3.98 0.88325,6.2975 0.19,4.4025 -2.353,4.9088 -3.769,6.6213" />
      <path
         inkscape:connector-curvature="0"
         id="path528"
         style="fill:#1d1d1b;fill-opacity:1;fill-rule:nonzero;stroke:none"
         d="m 229.19477,1025.4861 c -1.56875,1.895 -1.47375,4.1338 -1.34125,6.505 0.2575,4.5838 0.25,9.1563 0.4075,13.7475 0.36,10.5063 -0.91625,23.2588 3.07625,33.1988 0.37625,0.9362 1.66375,0.585 1.50625,-0.415 -1.54625,-9.8138 -2.09,-19.4 -2.41125,-29.3175 -0.145,-4.465 -0.0725,-8.9838 -0.3175,-13.44 -0.1625,-2.935 -1.4225,-6.82 0.0312,-9.545 0.3075,-0.5775 -0.49375,-1.2875 -0.95125,-0.7338" />
      <path
         inkscape:connector-curvature="0"
         id="path530"
         style="fill:#1d1d1b;fill-opacity:1;fill-rule:nonzero;stroke:none"
         d="m 232.43602,1079.3924 c 3.6075,-1.665 7.43625,-1.3275 11.29625,-1.6238 1.8275,-0.14 3.59625,-0.4912 5.385,-0.8975 2.21,-0.5012 5.725,-2.3462 7.92375,-2.02 0.89375,0.1313 1.51875,-1.005 0.6475,-1.535 -2.00875,-1.2225 -3.7325,0.041 -5.76125,0.745 -3.21375,1.115 -6.66125,1.7013 -10.04125,1.97 -2.4275,0.1925 -9.1,-0.1375 -9.7375,3.1413 -0.0337,0.1737 0.13,0.2925 0.2875,0.22" />
      <path
         inkscape:connector-curvature="0"
         id="path532"
         style="fill:#1d1d1b;fill-opacity:1;fill-rule:nonzero;stroke:none"
         d="m 229.77977,1026.6774 c 3.4525,-1.6425 8.07875,-0.2713 11.7625,-0.6625 4.81625,-0.5125 9.64125,-2.1013 14.43625,-0.4988 1.375,0.46 1.96125,-1.705 0.5975,-2.1662 -5.46375,-1.8438 -11.05125,0.3487 -16.51625,0.855 -2.81125,0.2612 -8.82375,-0.8425 -10.7075,2.045 -0.18375,0.2837 0.1675,0.5512 0.4275,0.4275" />
      <path
         inkscape:connector-curvature="0"
         id="path534"
         style="fill:#1d1d1b;fill-opacity:1;fill-rule:nonzero;stroke:none"
         d="m 256.07227,1024.3086 c -0.80625,2.1825 -0.41,4.2425 -0.1225,6.5038 0.64125,5.0375 1.08375,10.1787 1.44625,15.2462 0.665,9.2775 0.40375,19.0963 -1.33875,28.2113 -0.24,1.2575 1.49625,1.7462 1.92125,0.53 2.73125,-7.8225 2.09625,-17.4025 1.74625,-25.57 -0.19,-4.4663 -0.8225,-8.9013 -1.26875,-13.3475 -0.37625,-3.7588 -1.73875,-7.72 -1.4625,-11.4488 0.0413,-0.56 -0.75,-0.59 -0.92125,-0.125" />
      <path
         inkscape:connector-curvature="0"
         id="path536"
         style="fill:#1d1d1b;fill-opacity:1;fill-rule:nonzero;stroke:none"
         d="m 256.57477,1073.9161 c 1.1325,5.5763 0.25,11.9463 0.65125,17.6363 0.38375,5.4412 1.27,10.7125 2.49125,16.03 2.62875,11.4412 6.40875,21.9237 13.50875,31.3661 6.12125,8.1426 13.61875,16.354 22.7675,21.1015 4.58375,2.3799 9.405,4.7599 14.1875,6.7134 5.66625,2.314 11.81625,3.1377 17.36875,5.7017 1.25,0.5762 2.2975,-1.1177 1.095,-1.8726 -3.62875,-2.2777 -7.78125,-3.1416 -11.8325,-4.3925 -5.38125,-1.6626 -10.21625,-4.2764 -15.26375,-6.6977 -11.12625,-5.3375 -20.01,-13.6285 -27.275,-23.5774 -6.8225,-9.3413 -10.19125,-19.9763 -12.76875,-31.13 -1.46,-6.315 -2.3375,-12.6838 -2.82125,-19.1488 -0.30375,-4.0662 0.0688,-8.0525 -1.22375,-11.9737 -0.185,-0.5638 -1.0025,-0.335 -0.885,0.2437" />
      <path
         inkscape:connector-curvature="0"
         id="path538"
         style="fill:#1d1d1b;fill-opacity:1;fill-rule:nonzero;stroke:none"
         d="m 328.05227,1172.1209 c 5.755,-2.481 7.885,-10.5586 9.58375,-15.9785 1.57,-5.0074 3.11,-10.0274 4.6425,-15.0474 1.635,-5.3576 2.465,-12.5301 5.81875,-17.0101 3.61875,-4.8325 10.62125,-7.8388 15.80125,-10.6825 4.68375,-2.5713 9.395,-5.1138 14.21875,-7.4138 4.5975,-2.1937 14.19375,-5.7112 14.2575,-11.9562 0.009,-0.7413 -0.93125,-1.115 -1.45,-0.6013 -3.22,3.19 -5.7825,5.93 -9.89875,8.11 -3.31625,1.7575 -6.74,3.2913 -10.0525,5.06 -7.95875,4.2488 -19.3525,8.5838 -24.95625,15.9575 -2.4575,3.2338 -2.815,7.275 -3.81625,11.1025 -1.41125,5.3914 -3.0325,10.7303 -4.5775,16.0838 -2.14875,7.4385 -3.67,16.7162 -10.05625,21.7475 -0.38875,0.3062 0.10875,0.7911 0.485,0.6285" />
      <path
         inkscape:connector-curvature="0"
         id="path540"
         style="fill:#1d1d1b;fill-opacity:1;fill-rule:nonzero;stroke:none"
         d="m 258.80227,1053.5036 c 7.34125,2.615 15.03625,4.0713 22.4675,6.4163 6.78125,2.1412 12.92875,3.8362 20.1125,3.4475 6.6975,-0.3625 13.27875,-1.8888 19.71125,-3.7063 8.23875,-2.3287 15.88125,-1.46 23.98125,1.1375 17.885,5.735 33.20125,20.7388 45.45,34.4813 1.24,1.3912 3.09125,-0.605 2.0025,-2.0025 -10.965,-14.075 -27.77,-28.205 -44.52875,-34.4388 -5.435,-2.0225 -11.94125,-3.6987 -17.75125,-3.7237 -6.91875,-0.03 -13.65375,3.1837 -20.42,4.4012 -9.94375,1.7875 -18.26875,0.7488 -27.85,-2.1637 -7.4825,-2.2738 -15.2075,-4.3088 -22.985,-5.25 -0.84375,-0.1013 -0.89625,1.1487 -0.19,1.4012" />
      <path
         inkscape:connector-curvature="0"
         id="path542"
         style="fill:#d38a1f;fill-opacity:1;fill-rule:nonzero;stroke:none"
         d="m 257.74727,1071.5836 c 3.83125,3.4925 4.775,9.405 6.5775,14.0825 2.74125,7.1088 4.60125,14.9175 8.06625,21.6925 0.21125,0.4125 0.97,0.24 0.91,-0.2462 -1.03625,-8.5063 -4.78375,-16.3838 -7.80875,-24.31 -1.59625,-4.1863 -2.7575,-9.8688 -6.88125,-12.3388 -0.6825,-0.41 -1.47,0.5663 -0.86375,1.12" />
      <path
         inkscape:connector-curvature="0"
         id="path544"
         style="fill:#1d1d1b;fill-opacity:1;fill-rule:nonzero;stroke:none"
         d="m 258.34727,1049.7086 c 10.13625,-3.6825 20.895,-3.8125 31.495,-4.9225 0.37625,-0.04 0.525,-0.6125 0.0963,-0.71 -5.12125,-1.1662 -10.41625,-0.275 -15.55,0.5038 -5.5525,0.8412 -11.48875,1.4262 -16.31875,4.4687 -0.33125,0.2088 -0.12375,0.8063 0.2775,0.66" />
      <path
         inkscape:connector-curvature="0"
         id="path546"
         style="fill:#1d1d1b;fill-opacity:1;fill-rule:nonzero;stroke:none"
         d="m 256.85977,1030.4299 c 15.11125,-4.9075 38.18875,-13.145 44.475,-29.5838 0.145,-0.3762 -0.41,-0.6737 -0.66875,-0.3887 -6.3875,6.9962 -11.5775,13.28 -20.0675,18.0125 -3.595,2.0037 -7.18875,4.12 -10.88625,5.9237 -4.2575,2.0775 -9.0825,2.9413 -13.10875,5.43 -0.31,0.1913 -0.11375,0.7263 0.25625,0.6063" />
      <path
         inkscape:connector-curvature="0"
         id="path548"
         style="fill:#1d1d1b;fill-opacity:1;fill-rule:nonzero;stroke:none"
         d="m 256.34227,1025.1099 c 4.29,-5.9963 0.8925,-15.6088 2.56625,-22.515 2.50125,-10.32632 9.06,-19.69632 16.77875,-26.81382 7.0275,-6.4787 15.14125,-11.6125 22.96,-17.0537 7.54,-5.2475 14.34,-12.6613 22.33125,-17.05 1.19,-0.6538 0.12625,-2.4775 -1.065,-1.8213 -8.59375,4.74 -15.7575,12.5625 -23.86125,18.1725 -7.7175,5.3438 -15.6325,10.5175 -22.465,17.0025 -6.46,6.1313 -11.62875,13.5538 -14.815,21.9013 -1.57375,4.12502 -2.54,8.38122 -2.475,12.80122 0.0775,5.2413 0.80375,9.9275 -0.615,15.0975 -0.11375,0.415 0.43125,0.5988 0.66,0.2788" />
      <path
         inkscape:connector-curvature="0"
         id="path550"
         style="fill:#1d1d1b;fill-opacity:1;fill-rule:nonzero;stroke:none"
         d="m 322.50477,1058.3886 c 5.14875,-2.3962 10.7275,-3.585 15.95375,-5.7912 5.96125,-2.515 11.69,-5.7338 17.285,-8.9713 10.46125,-6.0512 21.235,-12.7225 30.44125,-20.585 1.1575,-0.99 -0.50375,-2.5925 -1.6575,-1.6575 -10.1525,8.2175 -21.40125,15.5638 -32.7275,22.0638 -5.87,3.3687 -11.88125,6.8187 -18.20375,9.2662 -3.9875,1.5425 -8.06375,2.4875 -11.2925,5.415 -0.14875,0.1338 0.04,0.335 0.20125,0.26" />
      <path
         inkscape:connector-curvature="0"
         id="path552"
         style="fill:#1d1d1b;fill-opacity:1;fill-rule:nonzero;stroke:none"
         d="m 319.70602,941.09858 c 6.65625,-0.3375 11.99,9.0288 15.7725,13.575 6.89625,8.2888 14.15375,16.2725 20.27625,25.1713 5.3725,7.81 10.04375,16.0575 15.15125,24.03502 3.9,6.09 12.52875,11.1537 13.4725,18.5787 0.1575,1.2388 1.82625,1.2713 1.95375,0 0.74375,-7.4187 -8.46875,-12.68 -12.2475,-17.92 -7.235,-10.03122 -12.7,-21.27002 -20.0475,-31.26502 -6.38,-8.68 -13.72625,-16.7175 -20.71875,-24.9062 -2.6625,-3.1163 -8.86625,-10.7625 -13.78,-7.8875 -0.275,0.1612 -0.16875,0.6362 0.1675,0.6187" />
      <path
         inkscape:connector-curvature="0"
         id="path554"
         style="fill:#1d1d1b;fill-opacity:1;fill-rule:nonzero;stroke:none"
         d="m 373.97852,1031.3136 c 1.1825,0.6363 2.71875,0.6975 3.99875,1.0963 0.7975,0.2475 1.59375,0.5337 2.3325,0.925 0.53875,0.2862 0.94875,0.6725 1.59,0.625 0.59125,-0.043 0.9925,-0.5313 0.8575,-1.125 -0.3225,-1.425 -2.885,-1.93 -4.06375,-2.2338 -1.345,-0.3462 -3.40625,-0.9562 -4.715,-0.215 -0.34375,0.195 -0.355,0.7363 0,0.9275" />
      <path
         inkscape:connector-curvature="0"
         id="path556"
         style="fill:#1d1d1b;fill-opacity:1;fill-rule:nonzero;stroke:none"
         d="m 380.99477,1032.8899 c -1.2175,8.1537 -2.9725,15.7812 -4.9,23.7837 -1.51,6.2663 -3.795,12.9175 -4.35375,19.3413 -0.0575,0.6525 0.91125,1.0637 1.33375,0.5525 1.6775,-2.0275 1.83125,-4.19 2.40125,-6.7413 0.93375,-4.18 1.9175,-8.355 2.88875,-12.5262 1.86,-7.995 4.87125,-15.8875 3.9725,-24.2288 -0.075,-0.6912 -1.21875,-1.0112 -1.3425,-0.1812" />
      <path
         inkscape:connector-curvature="0"
         id="path558"
         style="fill:#1d1d1b;fill-opacity:1;fill-rule:nonzero;stroke:none"
         d="m 364.14977,1112.0674 c -2.05125,2.4012 -2.9225,5.5875 -3.87125,8.5537 -1.23625,3.8613 -2.42625,7.7463 -3.60125,11.6263 -0.405,1.3387 1.61,1.8562 2.0725,0.5712 1.21,-3.365 2.0325,-6.8587 3.00375,-10.2975 0.945,-3.3437 2.4525,-6.7037 2.935,-10.14 0.0387,-0.28 -0.30375,-0.5887 -0.53875,-0.3137" />
      <path
         inkscape:connector-curvature="0"
         id="path560"
         style="fill:#1d1d1b;fill-opacity:1;fill-rule:nonzero;stroke:none"
         d="m 343.42852,1131.6699 c 1.98375,1.1737 5,1.1312 7.26125,1.4 2.35375,0.2787 5.54625,1.1475 7.62,-0.185 0.45375,-0.2913 0.44,-0.9025 0,-1.1975 -1.91875,-1.2838 -4.865,-0.7975 -7.10875,-0.9288 -2.39625,-0.14 -5.4175,-0.8175 -7.67,0.1263 -0.32375,0.1362 -0.44875,0.58 -0.1025,0.785" />
      <path
         inkscape:connector-curvature="0"
         id="path562"
         style="fill:#1d1d1b;fill-opacity:1;fill-rule:nonzero;stroke:none"
         d="m 230.60977,1069.7186 c -8.97,0.6563 -16.19375,10.9063 -17.625,19.035 -0.0675,0.3875 0.4375,0.6475 0.66125,0.2775 2.54125,-4.2175 4.815,-8.7612 8.065,-12.4975 2.485,-2.8575 7.00625,-3.5137 9.00875,-6.6237 l -0.11,-0.1913" />
      <path
         inkscape:connector-curvature="0"
         id="path564"
         style="fill:#1d1d1b;fill-opacity:1;fill-rule:nonzero;stroke:none"
         d="m 229.37602,1053.4124 c -7.4125,-0.8388 -14.4475,2.4487 -20.55625,6.36 -6.33125,4.0537 -13.675,9.1987 -18.3325,15.1162 -0.37875,0.48 0.0787,1.1425 0.66375,0.8588 6.3225,-3.0813 11.445,-8.9725 17.2075,-12.975 6.55125,-4.5488 13.2975,-7.1488 21.12125,-8.5925 0.46875,-0.086 0.2975,-0.7225 -0.10375,-0.7675" />
      <path
         inkscape:connector-curvature="0"
         id="path566"
         style="fill:#1d1d1b;fill-opacity:1;fill-rule:nonzero;stroke:none"
         d="m 229.30352,1053.8749 c -1.90125,-1.4763 -4.15875,-1.5925 -6.5125,-1.565 -4.46125,0.054 -8.88375,0.405 -13.36375,0.3962 -13.04375,-0.024 -25.5525,0.6 -38.24488,-3.1725 -11.99075,-3.5637 -23.48237,-8.6162 -35.54,-11.9862 -5.65037,-1.5788 -11.41312,-2.7013 -17.05862,-4.3038 -4.7895,-1.3587 -9.38763,-3.4987 -14.33738,-4.1587 -1.21387,-0.1625 -1.28325,1.6487 -0.2725,2.0137 10.22225,3.6975 20.46338,6.3063 30.8995,9.2375 11.28563,3.1688 22.14063,7.6675 33.33488,11.1225 10.63925,3.2838 21.16525,4.195 32.26775,3.765 5.22,-0.2012 10.48375,-0.091 15.69375,-0.3887 3.57375,-0.205 9.13875,-1.9825 12.41125,-0.024 0.56375,0.3362 1.2675,-0.5125 0.7225,-0.9363" />
      <path
         inkscape:connector-curvature="0"
         id="path568"
         style="fill:#1d1d1b;fill-opacity:1;fill-rule:nonzero;stroke:none"
         d="m 104.76052,1030.6574 c 4.585,-8.99 10.59237,-18.065 16.61187,-26.185 3.28313,-4.4288 7.226,-8.42502 11.229,-12.20632 3.12013,-2.9487 7.19925,-5.0737 9.67138,-8.605 0.502,-0.7175 -0.48875,-1.6812 -1.20263,-1.2025 -7.98925,5.3525 -15.2715,12.335 -21.045,20.01632 -3.31537,4.4112 -5.73875,9.43 -8.77975,14.0362 -2.88812,4.3763 -5.82912,8.7113 -7.57325,13.6875 -0.22262,0.6338 0.78225,1.06 1.08838,0.4588" />
      <path
         inkscape:connector-curvature="0"
         id="path570"
         style="fill:#1d1d1b;fill-opacity:1;fill-rule:nonzero;stroke:none"
         d="m 141.56714,983.21738 c 0.1245,-6.5488 -2.56487,-12.7338 -3.24262,-19.205 -0.66263,-6.325 0.75825,-11.7788 1.77975,-17.9063 0.0884,-0.5312 -0.54488,-1.0387 -0.9795,-0.5712 -3.34863,3.6137 -3.27875,10.3 -3.16888,14.9537 0.18213,7.715 2.78463,15.4075 4.53713,22.8738 0.143,0.6112 1.0625,0.4612 1.07412,-0.145" />
      <path
         inkscape:connector-curvature="0"
         id="path572"
         style="fill:#1d1d1b;fill-opacity:1;fill-rule:nonzero;stroke:none"
         d="m 229.51352,1043.9249 c -8.2925,-3.2325 -11.64125,-10.7725 -15.08625,-18.3938 -3.25375,-7.2 -6.8325,-13.6025 -13.1375,-18.6712 -0.28375,-0.2288 -0.87375,-0.027 -0.70125,0.4087 1.79875,4.5525 5.9575,7.5325 8.3925,11.7563 2.27375,3.9462 3.84125,8.275 5.88,12.34 2.92,5.8212 7.2225,13.2087 14.515,13.5775 0.62375,0.031 0.645,-0.8188 0.1375,-1.0175" />
      <path
         inkscape:connector-curvature="0"
         id="path574"
         style="fill:#1d1d1b;fill-opacity:1;fill-rule:nonzero;stroke:none"
         d="m 229.50852,1026.4324 c -5.88375,-9.33 -6.51875,-20.7988 -10.83375,-30.81132 -4.02875,-9.3475 -10.43625,-17.48 -17.725,-24.5137 -8.05875,-7.7788 -17.595,-13.1713 -27.85425,-17.55 -10.38575,-4.4313 -22.1265,-8.77 -33.55613,-8.3838 -1.6285,0.055 -1.63925,2.5788 0,2.5388 11.87638,-0.285 24.499,4.7412 35.186,9.5825 10.61938,4.8112 19.91313,10.9525 28.07188,19.3262 7.8875,8.095 13.62125,16.985 16.9175,27.84632 2.365,7.7887 3.93,15.9825 9.10375,22.4975 0.31125,0.3925 0.9525,-0.115 0.69,-0.5325" />
      <path
         inkscape:connector-curvature="0"
         id="path576"
         style="fill:#1d1d1b;fill-opacity:1;fill-rule:nonzero;stroke:none"
         d="m 158.04964,1046.6711 c -5.03225,-0.6275 -11.09525,2.9438 -15.61862,4.8325 -5.72175,2.39 -11.42825,4.8438 -17.05525,7.4513 -5.71288,2.6475 -11.23288,5.6062 -16.7675,8.5987 -3.20075,1.7313 -6.94925,3.0863 -8.24613,6.7263 -0.31012,0.8687 1.00725,1.6812 1.59963,0.9312 2.68937,-3.41 6.6875,-5.0725 10.40037,-7.1312 4.9595,-2.75 10.00388,-5.3175 15.1445,-7.7125 9.95163,-4.6363 20.17725,-9.5263 30.6675,-12.7763 0.53613,-0.1662 0.38088,-0.8575 -0.1245,-0.92" />
      <path
         inkscape:connector-curvature="0"
         id="path578"
         style="fill:#1d1d1b;fill-opacity:1;fill-rule:nonzero;stroke:none"
         d="m 231.88352,1078.1286 c -5.23875,4.0425 -4.12375,13.0975 -7.41,18.5413 -5.095,8.4412 -11.59,17.21 -18.24375,24.4537 -6.90625,7.5188 -14.235,14.9613 -22.0825,21.4963 -4.2065,3.501 -8.39213,7.8286 -13.06638,10.6777 -3.229,1.9673 -6.90725,2.8184 -9.4795,5.7398 -1.06787,1.2124 0.7075,3.0015 1.78125,1.7822 2.835,-3.2197 7.40425,-4.1675 10.82813,-6.6421 4.07125,-2.9429 7.85587,-6.5527 11.71775,-9.7764 7.83625,-6.5412 15.17875,-13.98 22.0825,-21.495 6.13375,-6.6787 11.14625,-14.2987 16.3675,-21.6862 2.13375,-3.0163 4.13375,-6.18 4.97875,-9.8138 1.015,-4.36 0.71125,-8.7312 3.0875,-12.7162 0.195,-0.3275 -0.2225,-0.8213 -0.56125,-0.5613" />
      <path
         inkscape:connector-curvature="0"
         id="path580"
         style="fill:#1d1d1b;fill-opacity:1;fill-rule:nonzero;stroke:none"
         d="m 100.97252,1074.0411 c -0.2515,3.185 1.52675,4.9475 3.1015,7.615 2.2085,3.7413 3.80425,7.8 5.74225,11.6763 4.43937,8.8825 10.64837,16.8112 16.28162,24.95 4.93175,7.125 9.942,14.2387 15.74613,20.69 6.48687,7.21 14.1045,13.5625 19.40625,21.7847 0.79937,1.2403 2.76075,0.1167 1.98975,-1.1636 -3.98188,-6.6084 -9.86325,-12.3847 -15.31588,-17.79 -6.76412,-6.7036 -12.40237,-14.3511 -17.835,-22.1461 -4.99262,-7.1638 -10.22362,-14.2363 -14.9135,-21.6013 -2.41112,-3.7862 -4.28475,-7.775 -6.36237,-11.7412 -2.08,-3.9713 -5.90088,-8.135 -7.227,-12.3575 -0.10888,-0.345 -0.5865,-0.265 -0.61375,0.084" />
      <path
         inkscape:connector-curvature="0"
         id="path582"
         style="fill:#1d1d1b;fill-opacity:1;fill-rule:nonzero;stroke:none"
         d="m 135.59064,987.57488 c -5.9185,0.1487 -11.88187,0.3375 -17.76225,-0.5913 -0.99612,-0.1575 -1.767,1.19 -0.73775,1.7488 2.98488,1.6225 7.15913,0.905 10.44088,1.0412 2.70412,0.1125 6.48337,0.7325 8.34575,-1.7 0.15625,-0.2037 -0.0566,-0.505 -0.28663,-0.4987" />
      <path
         inkscape:connector-curvature="0"
         id="path584"
         style="fill:#1d1d1b;fill-opacity:1;fill-rule:nonzero;stroke:none"
         d="m 117.02564,987.82358 c -0.82025,3.45 -0.75875,7.0613 -0.86962,10.5925 -0.11075,3.51502 -0.64838,7.24002 0.15187,10.68132 0.17825,0.7662 1.36325,0.7612 1.5445,0 0.81738,-3.4313 0.38763,-7.1638 0.39888,-10.68132 0.0112,-3.5325 0.18012,-7.135 -0.623,-10.5925 -0.0694,-0.2987 -0.53175,-0.2975 -0.60263,0" />
      <path
         inkscape:connector-curvature="0"
         id="path586"
         style="fill:#1d1d1b;fill-opacity:1;fill-rule:nonzero;stroke:none"
         d="m 116.18139,1034.1936 c -0.63612,4.5688 -1.38175,9.1938 -1.05612,13.8213 0.36525,5.1937 1.84962,10.1587 1.53562,15.4137 -0.10787,1.805 2.71975,1.8063 2.8125,0 0.2295,-4.4675 -0.76262,-8.5487 -1.52287,-12.9175 -0.94188,-5.4125 -0.40875,-10.775 -0.94388,-16.2062 -0.0425,-0.4275 -0.75437,-0.6188 -0.82525,-0.1113" />
    </g>
  </g>
</svg>
